<?xml version="1.0" encoding="UTF-8"?>
<svg width="230px" height="108px" viewBox="0 0 230 108" version="1.1" xmlns="http://www.w3.org/2000/svg" xmlns:xlink="http://www.w3.org/1999/xlink">
    <title>工具BG Copy备份 91</title>
    <g id="ClassIn教室改版2.0--0619.20" stroke="none" stroke-width="1" fill="none" fill-rule="evenodd" fill-opacity="0.95" stroke-opacity="0.1">
        <g id="小黑板备份" transform="translate(-186.000000, -561.000000)" fill="#464646" stroke="#FFFFFF">
            <g id="截图" transform="translate(186.000000, 561.000000)">
                <path d="M224,0.5 C225.518783,0.5 226.893783,1.11560847 227.889087,2.1109127 C228.884392,3.10621694 229.5,4.48121694 229.5,6 L229.5,6 L229.5,102 C229.5,103.518783 228.884392,104.893783 227.889087,105.889087 C226.893783,106.884392 225.518783,107.5 224,107.5 L224,107.5 L6,107.5 C4.48121694,107.5 3.10621694,106.884392 2.1109127,105.889087 C1.11560847,104.893783 0.5,103.518783 0.5,102 L0.5,102 L0.5,6 C0.5,4.48121694 1.11560847,3.10621694 2.1109127,2.1109127 C3.10621694,1.11560847 4.48121694,0.5 6,0.5 L6,0.5 Z" id="工具BG-Copy备份-91"></path>
            </g>
        </g>
    </g>
</svg>