<?xml version="1.0" encoding="UTF-8"?>
<svg width="160px" height="91px" viewBox="0 0 160 91" version="1.1" xmlns="http://www.w3.org/2000/svg" xmlns:xlink="http://www.w3.org/1999/xlink">
    <title>举手背景框框</title>
    <g id="ClassIn教室改版2.0--0619.20" stroke="none" stroke-width="1" fill="none" fill-rule="evenodd">
        <g id="鼠标滑过举手的弹出" transform="translate(-767.000000, -394.000000)">
            <g id="举手背景框框" transform="translate(767.000000, 394.000000)">
                <path d="M6,0 L154,0 C157.313708,-6.08718376e-16 160,2.6862915 160,6 L160,85 C160,88.3137085 157.313708,91 154,91 L6,91 C2.6862915,91 4.05812251e-16,88.3137085 0,85 L0,6 C-4.05812251e-16,2.6862915 2.6862915,6.08718376e-16 6,0 Z" id="工具BG-Copy备份-92" fill="#323232"></path>
                <path d="M154,0 C157.313708,0 160,2.6862915 160,6 L160,85 C160,88.3137085 157.313708,91 154,91 L6,91 C2.6862915,91 0,88.3137085 0,85 L0,6 C0,2.6862915 2.6862915,0 6,0 L154,0 Z M154,1 L6,1 C3.3112453,1 1.11818189,3.12230671 1.00461951,5.78311038 L1,6 L1,85 C1,87.6887547 3.12230671,89.8818181 5.78311038,89.9953805 L6,90 L154,90 C156.688755,90 158.881818,87.8776933 158.99538,85.2168896 L159,85 L159,6 C159,3.3112453 156.877693,1.11818189 154.21689,1.00461951 L154,1 Z" id="工具BG-Copy备份-92" fill="#4A4A4A" fill-rule="nonzero"></path>
            </g>
        </g>
    </g>
</svg>