<svg width="20" height="20" viewBox="0 0 20 20" fill="none" xmlns="http://www.w3.org/2000/svg">
<path d="M18 4.84V18.0444C18 19.1245 17.1046 20 16 20H4C2.89543 20 2 19.1245 2 18.0444V1.95556C2 0.875532 2.89543 0 4 0H13.05L18 4.84Z" fill="#2CD181"/>
<path d="M8.4255 7.41405L6.79442 7.40233L9.08527 10.4427L6.70461 13.5137L8.35368 13.5256L9.90254 11.5273L11.4253 13.5478L13.0564 13.5595L10.7255 10.4662L13.0658 7.44736L11.4167 7.43553L9.90807 9.38148L8.4255 7.41405Z" fill="white"/>
<path d="M13.0498 0V3.64C13.0498 4.30274 13.5871 4.84 14.2498 4.84H17.9998L13.0498 0Z" fill="#02C466"/>
</svg>
