<svg width="20" height="20" viewBox="0 0 20 20" fill="none" xmlns="http://www.w3.org/2000/svg">
<path fill-rule="evenodd" clip-rule="evenodd" d="M17.7778 1.97925C18.2764 1.97925 18.6873 2.35456 18.7435 2.83809L18.75 2.95147V14.6181C18.75 15.1167 18.3747 15.5277 17.8912 15.5838L17.7778 15.5904H2.22222C1.72363 15.5904 1.3127 15.215 1.25654 14.7315L1.25 14.6181V2.95147C1.25 2.45288 1.62532 2.04195 2.10884 1.98579L2.22222 1.97925H17.7778ZM17.3832 3.33984H2.60547V14.2287H17.3832V3.33984Z" fill="#C3C3C3"/>
<path fill-rule="evenodd" clip-rule="evenodd" d="M17.7778 1.97925C18.2764 1.97925 18.6873 2.35456 18.7435 2.83809L18.75 2.95147V14.6181C18.75 15.1167 18.3747 15.5277 17.8912 15.5838L17.7778 15.5904H2.22222C1.72363 15.5904 1.3127 15.215 1.25654 14.7315L1.25 14.6181V2.95147C1.25 2.45288 1.62532 2.04195 2.10884 1.98579L2.22222 1.97925H17.7778ZM17.3832 3.33984H2.60547V14.2287H17.3832V3.33984Z" fill="#C3C3C3"/>
<path fill-rule="evenodd" clip-rule="evenodd" d="M4.31299 17.5842C4.24257 17.7743 4.38268 17.9765 4.58535 17.9772L15.4468 18.0193C15.6409 18.0201 15.7816 17.8345 15.7284 17.6478L15.4907 16.8129C15.4551 16.6879 15.3411 16.6015 15.2112 16.6011L4.89534 16.5632C4.77295 16.5628 4.6633 16.6388 4.62078 16.7536L4.31299 17.5842Z" fill="#C3C3C3"/>
<path fill-rule="evenodd" clip-rule="evenodd" d="M4.31299 17.5842C4.24257 17.7743 4.38268 17.9765 4.58535 17.9772L15.4468 18.0193C15.6409 18.0201 15.7816 17.8345 15.7284 17.6478L15.4907 16.8129C15.4551 16.6879 15.3411 16.6015 15.2112 16.6011L4.89534 16.5632C4.77295 16.5628 4.6633 16.6388 4.62078 16.7536L4.31299 17.5842Z" fill="#C3C3C3"/>
<path fill-rule="evenodd" clip-rule="evenodd" d="M12.6588 6.89064C12.3724 6.59954 11.9069 6.58773 11.6061 6.86392L7.72734 10.4258C7.62213 10.5294 7.5472 10.659 7.51222 10.798L7.1184 11.8066C7.05859 11.9598 7.20413 12.1135 7.36033 12.0621L8.43172 11.7094C8.56656 11.6753 8.69273 11.6037 8.79483 11.5031L12.6311 7.98014C12.9469 7.69018 12.9594 7.19624 12.6588 6.89064Z" fill="#C3C3C3"/>
<path fill-rule="evenodd" clip-rule="evenodd" d="M12.6588 6.89064C12.3724 6.59954 11.9069 6.58773 11.6061 6.86392L7.72734 10.4258C7.62213 10.5294 7.5472 10.659 7.51222 10.798L7.1184 11.8066C7.05859 11.9598 7.20413 12.1135 7.36033 12.0621L8.43172 11.7094C8.56656 11.6753 8.69273 11.6037 8.79483 11.5031L12.6311 7.98014C12.9469 7.69018 12.9594 7.19624 12.6588 6.89064Z" fill="#C3C3C3"/>
</svg>
