<svg width="20" height="20" viewBox="0 0 20 20" fill="none" xmlns="http://www.w3.org/2000/svg">
<path fill-rule="evenodd" clip-rule="evenodd" d="M4.09324 2.45339C4.09324 2.21472 4.28672 2.02124 4.52539 2.02124H18.4904C18.729 2.02124 18.9225 2.21472 18.9225 2.45339V12.0135C18.9225 12.2522 18.729 12.4456 18.4904 12.4456H14.2148C13.9761 12.4456 13.7827 12.2522 13.7827 12.0135C13.7827 11.7748 13.9761 11.5813 14.2148 11.5813H18.0582V2.88555H4.95754V4.37131C4.95754 4.60999 4.76406 4.80347 4.52539 4.80347C4.28672 4.80347 4.09324 4.60999 4.09324 4.37131V2.45339ZM8.29426 13.5972V17.8417C8.29426 18.0443 8.13092 18.2089 7.9284 18.2105L3.45264 18.2454C3.24788 18.247 3.08103 18.0814 3.08103 17.8767V13.1768C2.75487 13.844 2.42289 14.6528 2.42626 16.93C2.42263 17.0579 2.43483 17.1167 2.44894 17.1846C2.46043 17.2399 2.47319 17.3013 2.47966 17.4112C2.50396 17.826 2.18743 18.1819 1.77304 18.2063C1.75815 18.2072 1.74315 18.2076 1.72837 18.2076C0.991213 18.2076 0.921875 17.5011 0.921875 16.93C0.923443 14.7999 1.18242 13.3891 1.56859 12.4134C1.94984 11.4415 2.49522 10.8931 3.00075 10.6422C3.38129 10.4504 3.7401 10.4402 4.14729 10.4402H6.91193C7.83348 10.4402 8.1243 10.6685 8.29426 10.8715L10.1421 13.1062L11.6102 10.819C11.7983 10.5258 12.1558 10.4078 12.4724 10.5096L14.4328 7.4348L14.7451 7.64418L12.7905 10.7106C13.0212 10.9559 13.0661 11.3349 12.8759 11.6311L10.8548 14.7804C10.5847 15.2009 9.96516 15.2402 9.64486 14.8566L8.29426 13.5972ZM7.57007 7.85687C7.57007 6.70909 6.64013 5.77859 5.49304 5.77859C4.34596 5.77859 3.41602 6.70909 3.41602 7.85687C3.41602 9.00465 4.34596 9.93515 5.49304 9.93515C6.64013 9.93515 7.57007 9.00465 7.57007 7.85687Z" fill="#C3C3C3"/>
</svg>
