<svg width="20" height="20" viewBox="0 0 20 20" fill="none" xmlns="http://www.w3.org/2000/svg">
<path d="M18 4.84V18.0444C18 19.1245 17.1046 20 16 20H4C2.89543 20 2 19.1245 2 18.0444V1.95556C2 0.875532 2.89543 0 4 0H13.05L18 4.84Z" fill="#F06C6C"/>
<path d="M11.6514 11.2198C11.0542 10.6783 10.5535 10.0417 10.1701 9.33659C10.5802 8.0268 10.5986 7.13348 10.2925 6.71096C10.1468 6.5216 9.92143 6.40823 9.68044 6.40313C9.37932 6.37574 9.08974 6.52441 8.93982 6.78339C8.51136 7.48356 9.12957 8.87183 9.41725 9.43317C9.09139 10.4402 8.66919 11.4143 8.15634 12.3425C5.86713 13.3082 5.7998 13.8937 5.7998 14.105C5.80774 14.3654 5.96412 14.599 6.20378 14.7086C6.30996 14.7738 6.43386 14.8054 6.55879 14.7991C7.17088 14.7991 7.84418 14.1412 8.58481 12.8555C9.49833 12.4747 10.4448 12.1757 11.4127 11.9622C11.9092 12.3763 12.5267 12.6237 13.1755 12.6684C13.5794 12.6684 14.3996 12.6684 14.3996 11.8656C14.4058 11.594 14.2405 11.0749 13.1449 11.0508C12.6427 11.0593 12.1425 11.1159 11.6514 11.2198ZM6.52819 14.1291C6.73634 13.8207 7.03544 13.5826 7.38511 13.4471C7.21041 13.7558 6.93399 13.9965 6.60164 14.1291H6.52819ZM9.62536 7.13348H9.69881C9.82464 7.52631 9.82464 7.94784 9.69881 8.34067C9.50888 7.96772 9.44865 7.54352 9.52742 7.13348C9.55911 7.12243 9.59367 7.12243 9.62536 7.13348ZM10.7516 11.6846C10.2022 11.8108 9.66068 11.968 9.12957 12.1554V12.1071H9.0806C9.3438 11.594 9.58251 11.0508 9.79674 10.5136V10.4653C10.0724 10.8785 10.3904 11.2628 10.7455 11.6121H10.6781L10.7516 11.6846ZM12.4777 11.8355C12.6792 11.7964 12.8845 11.7802 13.0898 11.7872C13.5611 11.7872 13.659 11.9019 13.659 11.9743C13.5074 12.0153 13.3483 12.0215 13.1938 11.9924C12.9516 11.9832 12.707 11.93 12.4777 11.8355Z" fill="white"/>
<path d="M13.0498 0V3.64C13.0498 4.30274 13.5871 4.84 14.2498 4.84H17.9998L13.0498 0Z" fill="#ED4747"/>
</svg>
