<svg width="20" height="20" viewBox="0 0 20 20" fill="none" xmlns="http://www.w3.org/2000/svg">
<path d="M18 4.84V18.0444C18 19.1245 17.1046 20 16 20H4C2.89543 20 2 19.1245 2 18.0444V1.95556C2 0.875532 2.89543 0 4 0H13.05L18 4.84Z" fill="#F06C6C"/>
<path d="M8.66993 7L8.66963 7.3363C9.04886 7.12117 9.47702 7.00227 9.92122 7C11.4005 7 12.5996 8.27954 12.5996 9.85793C12.5996 11.4363 11.4005 12.7159 9.92122 12.7159C9.47702 12.7136 9.04886 12.5947 8.66963 12.3796L8.66993 15H7.59961V7H8.66993ZM10.6251 8.31446C9.9509 7.96508 9.13989 8.15904 8.66993 8.78207L8.66955 10.9317C8.96424 11.3219 9.41529 11.5721 9.92122 11.5738C10.6707 11.5745 11.3213 11.0226 11.4896 10.2432C11.6579 9.4639 11.2993 8.66384 10.6251 8.31446Z" fill="white"/>
<path d="M13.0498 0V3.64C13.0498 4.30274 13.5871 4.84 14.2498 4.84H17.9998L13.0498 0Z" fill="#ED4747"/>
</svg>
