<svg width="20" height="20" viewBox="0 0 20 20" fill="none" xmlns="http://www.w3.org/2000/svg">
<path d="M18 4.84V18.0444C18 19.1245 17.1046 20 16 20H4C2.89543 20 2 19.1245 2 18.0444V1.95556C2 0.875532 2.89543 0 4 0H13.05L18 4.84Z" fill="#6592F0"/>
<path d="M6.95991 7.47998H5.6377L7.495 13.52H8.73985L9.90014 10.2112L11.0604 13.52H12.3053L14.1626 7.47998H12.8404L11.6375 11.3912L10.5181 8.20889H9.28214L8.16254 11.3912L6.95991 7.47998Z" fill="white"/>
<path d="M13.0498 0V3.64C13.0498 4.30274 13.5871 4.84 14.2498 4.84H17.9998L13.0498 0Z" fill="#4179EB"/>
</svg>
