<?xml version="1.0" encoding="UTF-8"?>
<svg width="12px" height="20px" viewBox="0 0 12 20" version="1.1" xmlns="http://www.w3.org/2000/svg" xmlns:xlink="http://www.w3.org/1999/xlink">
    <title>箭头</title>
    <g id="共享工具" stroke="none" stroke-width="1" fill="none" fill-rule="evenodd">
        <g id="箭头" transform="translate(0.000000, 0.000000)">
            <path d="M12,5.68434189e-14 L12,10 L11.643,10.000293 L6.8435074,17.5372847 C6.76499726,17.6605796 6.6604125,17.7651644 6.53711755,17.8436745 C6.07126128,18.1403163 5.45313443,18.0031409 5.1564926,17.5372847 L5.1564926,17.5372847 L0.356,10.000293 L0,10 L0,5.68434189e-14 L12,5.68434189e-14 Z" id="形状结合" fill="#323232"></path>
            <path d="M0,9 L0.904687778,9.00029522 L6,17.0001671 L11.0942508,9.00029522 L12,9 L12,10 L11.643,10.000293 L6.8435074,17.5372847 C6.76499726,17.6605796 6.6604125,17.7651644 6.53711755,17.8436745 C6.07126128,18.1403163 5.45313443,18.0031409 5.1564926,17.5372847 L5.1564926,17.5372847 L0.356,10.000293 L0,10 L0,9 Z" id="形状结合" fill-opacity="0.08" fill="#FFFFFF" fill-rule="nonzero"></path>
        </g>
    </g>
</svg>