<?xml version="1.0" encoding="UTF-8"?>
<svg width="10px" height="10px" viewBox="0 0 10 10" version="1.1" xmlns="http://www.w3.org/2000/svg" xmlns:xlink="http://www.w3.org/1999/xlink">
    <title>左下角</title>
    <g id="共享工具" stroke="none" stroke-width="1" fill="none" fill-rule="evenodd">
        <g id="左下角" transform="translate(5.000000, 5.000000) scale(1, -1) translate(-5.000000, -5.000000) ">
            <path d="M10,0 L10,10 L0,10 L0,6 C4.05812251e-16,2.6862915 2.6862915,2.98427949e-13 6,2.98427949e-13 L6,2.98427949e-13 L10,0 Z" id="形状结合" fill="#323232"></path>
            <path d="M10,0 L10,1 L6,1 L5.78311038,1.00461951 C3.12230671,1.11818189 1,3.3112453 1,6 L1,6 L1,10 L0,10 L0,6 C0,2.6862915 2.6862915,2.27373675e-13 6,2.27373675e-13 L6,2.27373675e-13 L10,0 Z" id="形状结合" fill-opacity="0.08" fill="#FFFFFF" fill-rule="nonzero"></path>
        </g>
    </g>
</svg>